<svg width="258" height="32" viewBox="0 0 258 32" fill="none" xmlns="http://www.w3.org/2000/svg">
<path d="M19.6873 1.96638C17.273 0.667827 14.4148 0 11.1662 0H0V31.3693H11.0242C13.403 31.3693 15.6043 30.9983 17.5748 30.2748C19.5453 29.5513 21.285 28.4939 22.7584 27.1212C24.2141 25.767 25.368 24.0974 26.1669 22.1867C26.9657 20.2759 27.374 18.087 27.374 15.7125C27.374 12.5588 26.6994 9.77623 25.3502 7.43884C24.0011 5.10145 22.1016 3.26493 19.6873 1.96638ZM20.1843 19.7751C19.9536 20.3873 19.6518 20.9438 19.3145 21.4632C18.9772 21.9826 18.5689 22.4464 18.1251 22.8731C17.2375 23.7078 16.1723 24.3757 15.0007 24.8209C13.829 25.2846 12.4976 25.5072 11.0419 25.5072H6.31981V6.08464H11.1839C13.1189 6.08464 14.8409 6.49275 16.2788 7.30899C17.7345 8.10667 18.8707 9.25681 19.6873 10.6667C20.4861 12.0951 20.8944 13.7832 20.8944 15.7125C20.8944 17.2151 20.6636 18.5693 20.1843 19.7751Z" fill="white"/>
<path d="M47.4343 9.14553C45.8189 8.08814 43.8129 7.55017 41.4696 7.55017C39.215 7.55017 37.2268 8.1067 35.5048 9.20119C33.8006 10.2957 32.4337 11.7797 31.475 13.6163C30.5164 15.4528 30.0371 17.4934 30.0371 19.6824C30.0371 22.131 30.5697 24.3015 31.5993 26.1195C32.6289 27.956 34.0846 29.4029 35.8954 30.4418C37.7061 31.4806 39.7831 32 42.0732 32C44.3987 32 46.4757 31.425 48.2332 30.3119C49.9552 29.2174 51.3043 27.6406 52.2452 25.6186L47.5764 23.1513C47.0615 24.1716 46.3159 24.9879 45.3573 25.5815C44.3632 26.1937 43.2448 26.4905 42.0199 26.4905C40.7417 26.4905 39.6233 26.1937 38.6825 25.6C37.7416 25.0064 37.0138 24.1716 36.5167 23.1142C36.2327 22.5206 36.0374 21.8899 35.9309 21.185L35.9131 21.0366H52.4937V19.2C52.4937 17.1038 52.0499 15.1374 51.1801 13.3751C50.3102 11.6313 49.0498 10.2029 47.4343 9.14553ZM36.1794 17.6047L36.2149 17.4377C36.3924 16.64 36.712 15.898 37.1558 15.2487C37.5996 14.5994 38.1854 14.0615 38.9132 13.6719C39.6233 13.2823 40.4754 13.0968 41.4163 13.0968C42.3394 13.0968 43.156 13.2824 43.8661 13.6534C44.5762 14.0244 45.162 14.5438 45.6059 15.1931C46.0497 15.8609 46.3159 16.6029 46.4225 17.4377L46.4402 17.5861H36.1794V17.6047Z" fill="white"/>
<path d="M97.3531 9.27541C96.4477 8.73744 95.4891 8.34788 94.4594 8.06962C93.4298 7.80991 92.3469 7.6615 91.2108 7.6615C88.974 7.6615 86.9147 8.21802 85.1395 9.31251C83.3465 10.407 81.9086 11.8911 80.8612 13.7276C79.8138 15.5641 79.2812 17.6047 79.2812 19.7937C79.2812 22.0198 79.7606 24.0789 80.6837 25.9154C81.6068 27.7519 82.9027 29.236 84.5359 30.3305C86.1514 31.425 88.0509 31.9815 90.1812 31.9815C92.0096 31.9815 93.5896 31.5734 94.8855 30.7572C95.7554 30.2006 96.5187 29.4957 97.14 28.6609L97.3708 28.3456V31.3879H103.194V19.8122C103.194 17.4934 102.661 15.4157 101.631 13.5977C100.584 11.7983 99.146 10.3514 97.3531 9.27541ZM96.2879 22.9473C96.0394 23.4111 95.7376 23.8192 95.3826 24.2087C95.0275 24.5798 94.637 24.9137 94.2109 25.1919C93.3411 25.7485 92.3292 26.0267 91.193 26.0267C90.0924 26.0267 89.0983 25.7485 88.2284 25.1919C87.3585 24.6354 86.6662 23.8748 86.1514 22.9473C85.6543 22.0198 85.388 20.9809 85.388 19.8679C85.388 18.7548 85.6366 17.716 86.1514 16.7885C86.6484 15.8609 87.3585 15.1189 88.2284 14.5438C89.0983 13.9873 90.0924 13.709 91.193 13.709C92.3292 13.709 93.3411 13.9873 94.2109 14.5438C95.0808 15.1003 95.7731 15.8609 96.2879 16.7885C96.785 17.716 97.0513 18.7548 97.0513 19.8679C97.0513 20.9809 96.785 22.0198 96.2879 22.9473Z" fill="white"/>
<path d="M117.306 7.77283C115.158 7.77283 113.33 8.23659 111.892 9.14558C110.454 10.0546 109.371 11.2975 108.661 12.8557C107.951 14.414 107.596 16.2134 107.596 18.1798V31.4065H113.72V18.421C113.72 17.0111 114.093 15.8795 114.839 15.0633C115.584 14.247 116.614 13.8204 117.91 13.8204C118.478 13.8204 119.099 13.8946 119.738 14.0615C120.306 14.2099 120.839 14.414 121.336 14.7108V8.55196C120.803 8.32935 120.182 8.14384 119.507 8.01398C118.78 7.84703 118.034 7.77283 117.306 7.77283Z" fill="white"/>
<path d="M132.822 7.77283C130.674 7.77283 128.845 8.23659 127.407 9.14558C125.969 10.0546 124.887 11.2975 124.176 12.8557C123.466 14.414 123.111 16.2134 123.111 18.1798V31.4065H129.236V18.421C129.236 17.0111 129.609 15.8795 130.354 15.0633C131.1 14.247 132.129 13.8204 133.425 13.8204C134.011 13.8204 134.615 13.8946 135.254 14.0615C135.822 14.2099 136.355 14.414 136.852 14.7108V8.55196C136.301 8.32935 135.698 8.14384 135.023 8.01398C134.295 7.84703 133.567 7.77283 132.822 7.77283Z" fill="white"/>
<path d="M155.917 9.33107C154.124 8.23657 152.065 7.68005 149.793 7.68005C147.574 7.68005 145.532 8.23657 143.739 9.33107C141.929 10.4256 140.491 11.9096 139.443 13.7276C138.396 15.5456 137.863 17.5861 137.863 19.8122C137.863 22.0383 138.396 24.0975 139.443 25.934C140.491 27.7705 141.929 29.2546 143.722 30.349C145.515 31.4435 147.556 32.0001 149.793 32.0001C152.047 32.0001 154.089 31.4435 155.9 30.349C157.693 29.2546 159.148 27.7705 160.196 25.934C161.243 24.0975 161.776 22.0383 161.776 19.8122C161.776 17.6232 161.243 15.5827 160.196 13.7461C159.148 11.9096 157.71 10.4256 155.917 9.33107ZM154.888 22.9473C154.639 23.4111 154.337 23.8192 153.982 24.2087C153.627 24.5798 153.255 24.9137 152.811 25.1919C151.941 25.7485 150.929 26.0267 149.793 26.0267C148.692 26.0267 147.698 25.7485 146.828 25.1919C145.958 24.6354 145.266 23.8748 144.751 22.9473C144.254 22.0198 143.988 20.9809 143.988 19.8679C143.988 18.7548 144.236 17.716 144.751 16.7885C145.248 15.8609 145.958 15.1189 146.828 14.5438C147.698 13.9873 148.71 13.709 149.793 13.709C150.929 13.709 151.941 13.9873 152.811 14.5438C153.681 15.1003 154.373 15.8609 154.888 16.7885C155.385 17.716 155.651 18.7548 155.651 19.8679C155.651 20.9809 155.385 22.0198 154.888 22.9473Z" fill="white"/>
<path d="M206.654 9.27541C205.748 8.73744 204.79 8.34788 203.76 8.06962C202.731 7.80991 201.648 7.6615 200.512 7.6615C198.257 7.6615 196.216 8.21802 194.44 9.31251C192.647 10.407 191.209 11.8911 190.162 13.7276C189.115 15.5641 188.582 17.6047 188.582 19.7937C188.582 22.0198 189.061 24.0789 189.984 25.9154C190.908 27.7519 192.203 29.236 193.837 30.3305C195.452 31.425 197.352 31.9815 199.482 31.9815C201.31 31.9815 202.89 31.5734 204.186 30.7572C205.056 30.2006 205.819 29.4957 206.441 28.6609L206.672 28.3456V31.3879H212.477V19.8122C212.477 17.4934 211.944 15.4157 210.914 13.5977C209.903 11.7983 208.465 10.3514 206.654 9.27541ZM205.606 22.9473C205.358 23.4111 205.056 23.8192 204.701 24.2087C204.346 24.5798 203.955 24.9137 203.529 25.1919C202.66 25.7485 201.648 26.0267 200.512 26.0267C199.411 26.0267 198.417 25.7485 197.547 25.1919C196.677 24.6354 195.985 23.8748 195.47 22.9473C194.973 22.0198 194.707 20.9809 194.707 19.8679C194.707 18.7548 194.955 17.716 195.47 16.7885C195.967 15.8609 196.677 15.1189 197.547 14.5438C198.417 13.9873 199.429 13.709 200.512 13.709C201.648 13.709 202.66 13.9873 203.529 14.5438C204.399 15.1003 205.092 15.8609 205.606 16.7885C206.104 17.716 206.37 18.7548 206.37 19.8679C206.37 20.9809 206.104 22.0198 205.606 22.9473Z" fill="white"/>
<path d="M224.868 2.44885H218.743V8.36654H214.643V13.7277H218.743V22.2796C218.743 24.1903 219.098 25.897 219.808 27.3625C220.519 28.828 221.584 29.9781 222.968 30.7758C224.371 31.592 226.146 32.0002 228.241 32.0002C229.04 32.0002 229.874 31.8889 230.708 31.7034C231.525 31.5178 232.2 31.2581 232.75 30.9428V25.3034C232.235 25.6187 231.649 25.8599 230.975 26.0268C230.211 26.2123 229.501 26.3051 228.827 26.3051C227.619 26.3051 226.661 25.9341 225.951 25.1921C225.241 24.45 224.868 23.4112 224.868 22.0755V13.7091H232.75V8.34799H224.868V2.44885Z" fill="white"/>
<path d="M257.496 19.2C257.496 17.1038 257.052 15.1374 256.182 13.3751C255.312 11.6128 254.052 10.1844 252.419 9.12697C250.803 8.06958 248.797 7.53162 246.454 7.53162C244.217 7.53162 242.211 8.08814 240.489 9.18263C238.785 10.2771 237.418 11.7612 236.459 13.5977C235.501 15.4342 235.021 17.4748 235.021 19.6638C235.021 22.1125 235.536 24.2829 236.584 26.1009C237.613 27.9374 239.069 29.3844 240.88 30.4232C242.69 31.462 244.767 31.9815 247.058 31.9815C249.401 31.9815 251.46 31.4064 253.218 30.2934C254.94 29.1989 256.289 27.622 257.23 25.6L252.561 23.1328C252.046 24.1531 251.3 24.9693 250.342 25.5629C249.348 26.1751 248.229 26.4719 247.004 26.4719C245.726 26.4719 244.608 26.1751 243.667 25.5815C242.744 24.9878 241.998 24.1531 241.501 23.0957C241.217 22.502 241.022 21.8713 240.915 21.1664L240.897 21.018H257.496V19.2ZM241.164 17.6047L241.199 17.4377C241.377 16.64 241.696 15.898 242.14 15.2487C242.584 14.5994 243.17 14.0615 243.898 13.6719C244.625 13.2823 245.46 13.0968 246.401 13.0968C247.324 13.0968 248.14 13.2823 248.851 13.6534C249.561 14.0244 250.146 14.5438 250.59 15.1931C251.034 15.8609 251.3 16.6029 251.407 17.4377L251.425 17.5861H241.164V17.6047Z" fill="white"/>
<path d="M172.074 0H165.949V31.3693H172.074V0Z" fill="white"/>
<path d="M184.41 0H178.285V31.3693H184.41V0Z" fill="white"/>
<path d="M76.884 24.3199L66.4102 20.4799C66.5344 26.4346 71.1678 31.2578 76.884 31.3506V24.3199Z" fill="white"/>
<path d="M55.582 9.08984C55.6708 15.0632 60.2864 19.9049 65.9849 20.0348L62.3101 9.08984H55.582Z" fill="white"/>
<path d="M66.0207 20.4799L55.5469 24.3199V31.3506C61.2631 31.2578 65.8964 26.4346 66.0207 20.4799Z" fill="white"/>
<path d="M76.8853 9.08984H70.1571L66.4824 20.0348C72.1809 19.9049 76.7965 15.0632 76.8853 9.08984Z" fill="white"/>
<path d="M156.699 0L153.362 4.61913H147.344L150.61 0H156.699Z" fill="white"/>
</svg>
