<svg width="224" height="28" viewBox="0 0 224 28" fill="none" xmlns="http://www.w3.org/2000/svg">
<path d="M17.0596 2.39462C14.9675 1.31782 12.4909 0.764038 9.67581 0.764038H0V26.7764H9.55275C11.614 26.7764 13.5215 26.4688 15.229 25.8688C16.9365 25.2689 18.444 24.3921 19.7208 23.2538C20.9822 22.1308 21.9821 20.7464 22.6743 19.1619C23.3665 17.5775 23.7203 15.7623 23.7203 13.7933C23.7203 11.1782 23.1358 8.8708 21.9667 6.93256C20.7976 4.99432 19.1516 3.47142 17.0596 2.39462ZM17.4903 17.1622C17.2903 17.6698 17.0288 18.1313 16.7365 18.562C16.4443 18.9927 16.0905 19.3773 15.7059 19.7311C14.9367 20.4233 14.0138 20.9771 12.9985 21.3463C11.9832 21.7309 10.8295 21.9155 9.56813 21.9155H5.47629V5.80961H9.6912C11.3679 5.80961 12.8601 6.14803 14.1061 6.82488C15.3675 7.48634 16.352 8.44008 17.0596 9.60918C17.7518 10.7937 18.1056 12.1935 18.1056 13.7933C18.1056 15.0393 17.9056 16.1623 17.4903 17.1622Z" fill="#D8002A"/>
<path d="M41.1031 8.34777C39.7033 7.47094 37.965 7.02484 35.9345 7.02484C33.9809 7.02484 32.258 7.48633 30.7659 8.39392C29.2891 9.30151 28.1046 10.5321 27.274 12.055C26.4433 13.5779 26.028 15.2701 26.028 17.0852C26.028 19.1158 26.4894 20.9156 27.3816 22.4231C28.2739 23.946 29.5352 25.1458 31.1043 26.0073C32.6733 26.8687 34.4731 27.2994 36.4575 27.2994C38.4727 27.2994 40.2725 26.8226 41.7954 25.8996C43.2875 24.992 44.4566 23.6845 45.2719 22.0077L41.2262 19.9618C40.7801 20.8079 40.134 21.4847 39.3034 21.977C38.4419 22.4846 37.4728 22.7307 36.4114 22.7307C35.3038 22.7307 34.3347 22.4846 33.5194 21.9923C32.7041 21.5001 32.0734 20.8079 31.6427 19.9311C31.3966 19.4388 31.2274 18.9158 31.1351 18.3312L31.1197 18.2082H45.4873V16.6853C45.4873 14.947 45.1027 13.3164 44.3489 11.8551C43.5952 10.4091 42.503 9.22459 41.1031 8.34777ZM31.3504 15.3623L31.3812 15.2239C31.535 14.5624 31.8119 13.9471 32.1965 13.4087C32.581 12.8703 33.0887 12.4242 33.7194 12.1012C34.3347 11.7781 35.0731 11.6243 35.8884 11.6243C36.6883 11.6243 37.3959 11.7781 38.0112 12.0858C38.6265 12.3935 39.1341 12.8242 39.5187 13.3626C39.9033 13.9164 40.134 14.5317 40.2263 15.2239L40.2417 15.347H31.3504V15.3623Z" fill="#D8002A"/>
<path d="M84.3576 8.4555C83.5731 8.00939 82.7424 7.68635 81.8502 7.45561C80.958 7.24025 80.0197 7.11719 79.0352 7.11719C77.0969 7.11719 75.3125 7.57867 73.7742 8.48626C72.2205 9.39385 70.9745 10.6245 70.067 12.1474C69.1594 13.6703 68.6979 15.3624 68.6979 17.1776C68.6979 19.0235 69.1132 20.731 69.9131 22.2539C70.713 23.7768 71.836 25.0074 73.2512 25.915C74.651 26.8226 76.297 27.2841 78.1429 27.2841C79.7274 27.2841 81.0965 26.9457 82.2194 26.2688C82.9732 25.8074 83.6346 25.2228 84.173 24.5306L84.373 24.2691V26.7919H89.4186V17.193C89.4186 15.2701 88.9571 13.5472 88.0649 12.0397C87.1573 10.5476 85.9113 9.3477 84.3576 8.4555ZM83.4346 19.7927C83.2193 20.1772 82.9578 20.5156 82.6501 20.8387C82.3425 21.1463 82.004 21.4232 81.6349 21.654C80.8811 22.1155 80.0043 22.3462 79.0198 22.3462C78.066 22.3462 77.2046 22.1155 76.4508 21.654C75.6971 21.1925 75.0971 20.5618 74.651 19.7927C74.2203 19.0235 73.9896 18.1621 73.9896 17.2391C73.9896 16.3161 74.2049 15.4547 74.651 14.6855C75.0818 13.9164 75.6971 13.3011 76.4508 12.8242C77.2046 12.3627 78.066 12.132 79.0198 12.132C80.0043 12.132 80.8811 12.3627 81.6349 12.8242C82.3886 13.2857 82.9885 13.9164 83.4346 14.6855C83.8654 15.4547 84.0961 16.3161 84.0961 17.2391C84.0961 18.1621 83.8654 19.0235 83.4346 19.7927Z" fill="#D8002A"/>
<path d="M101.649 7.20947C99.7873 7.20947 98.2029 7.59404 96.9569 8.3478C95.7109 9.10156 94.7725 10.1322 94.1572 11.4244C93.5419 12.7165 93.2343 14.2087 93.2343 15.8392V26.8072H98.5413V16.0392C98.5413 14.8701 98.8644 13.9318 99.5105 13.2549C100.157 12.5781 101.049 12.2243 102.172 12.2243C102.664 12.2243 103.202 12.2858 103.756 12.4243C104.248 12.5473 104.71 12.7165 105.141 12.9627V7.85555C104.679 7.67096 104.141 7.51713 103.556 7.40945C102.925 7.271 102.279 7.20947 101.649 7.20947Z" fill="#D8002A"/>
<path d="M115.093 7.20947C113.232 7.20947 111.647 7.59404 110.401 8.3478C109.155 9.10156 108.217 10.1322 107.602 11.4244C106.986 12.7165 106.679 14.2087 106.679 15.8392V26.8072H111.986V16.0392C111.986 14.8701 112.309 13.9318 112.955 13.2549C113.601 12.5781 114.493 12.2243 115.616 12.2243C116.124 12.2243 116.647 12.2858 117.2 12.4243C117.693 12.5473 118.154 12.7165 118.585 12.9627V7.85555C118.108 7.67096 117.585 7.51713 117 7.40945C116.37 7.271 115.739 7.20947 115.093 7.20947Z" fill="#D8002A"/>
<path d="M135.107 8.50164C133.553 7.59405 131.769 7.13257 129.8 7.13257C127.877 7.13257 126.108 7.59405 124.554 8.50164C122.985 9.40923 121.739 10.6399 120.832 12.1474C119.924 13.6549 119.463 15.347 119.463 17.193C119.463 19.0389 119.924 20.7464 120.832 22.2693C121.739 23.7922 122.985 25.0228 124.539 25.9304C126.093 26.838 127.862 27.2995 129.8 27.2995C131.754 27.2995 133.523 26.838 135.092 25.9304C136.645 25.0228 137.907 23.7922 138.814 22.2693C139.722 20.7464 140.183 19.0389 140.183 17.193C140.183 15.3778 139.722 13.6857 138.814 12.1628C137.907 10.6399 136.661 9.40923 135.107 8.50164ZM134.215 19.7927C134 20.1772 133.738 20.5156 133.43 20.8387C133.123 21.1463 132.8 21.4232 132.415 21.654C131.661 22.1155 130.785 22.3462 129.8 22.3462C128.846 22.3462 127.985 22.1155 127.231 21.654C126.477 21.1925 125.877 20.5618 125.431 19.7927C125.001 19.0235 124.77 18.1621 124.77 17.2391C124.77 16.3161 124.985 15.4547 125.431 14.6855C125.862 13.9164 126.477 13.3011 127.231 12.8242C127.985 12.3627 128.862 12.132 129.8 12.132C130.785 12.132 131.661 12.3627 132.415 12.8242C133.169 13.2857 133.769 13.9164 134.215 14.6855C134.646 15.4547 134.876 16.3161 134.876 17.2391C134.876 18.1621 134.646 19.0235 134.215 19.7927Z" fill="#D8002A"/>
<path d="M179.072 8.4555C178.287 8.00939 177.457 7.68635 176.564 7.45561C175.672 7.24025 174.734 7.11719 173.749 7.11719C171.796 7.11719 170.027 7.57867 168.488 8.48626C166.935 9.39385 165.689 10.6245 164.781 12.1474C163.874 13.6703 163.412 15.3624 163.412 17.1776C163.412 19.0235 163.827 20.731 164.627 22.2539C165.427 23.7768 166.55 25.0074 167.965 25.915C169.365 26.8226 171.011 27.2841 172.857 27.2841C174.442 27.2841 175.811 26.9457 176.934 26.2688C177.687 25.8074 178.349 25.2228 178.887 24.5306L179.087 24.2691V26.7919H184.117V17.193C184.117 15.2701 183.656 13.5472 182.764 12.0397C181.887 10.5476 180.641 9.3477 179.072 8.4555ZM178.164 19.7927C177.949 20.1772 177.687 20.5156 177.38 20.8387C177.072 21.1463 176.734 21.4232 176.364 21.654C175.611 22.1155 174.734 22.3462 173.749 22.3462C172.796 22.3462 171.934 22.1155 171.18 21.654C170.427 21.1925 169.827 20.5618 169.381 19.7927C168.95 19.0235 168.719 18.1621 168.719 17.2391C168.719 16.3161 168.935 15.4547 169.381 14.6855C169.811 13.9164 170.427 13.3011 171.18 12.8242C171.934 12.3627 172.811 12.132 173.749 12.132C174.734 12.132 175.611 12.3627 176.364 12.8242C177.118 13.2857 177.718 13.9164 178.164 14.6855C178.595 15.4547 178.826 16.3161 178.826 17.2391C178.826 18.1621 178.595 19.0235 178.164 19.7927Z" fill="#D8002A"/>
<path d="M194.854 2.79456H189.547V7.70169H185.993V12.1473H189.547V19.2388C189.547 20.8233 189.854 22.2385 190.47 23.4537C191.085 24.669 192.008 25.6227 193.208 26.2842C194.423 26.961 195.961 27.2994 197.777 27.2994C198.469 27.2994 199.192 27.2071 199.915 27.0533C200.622 26.8995 201.207 26.6841 201.684 26.4226V21.7462C201.238 22.0077 200.73 22.2077 200.146 22.3462C199.484 22.5 198.869 22.5769 198.284 22.5769C197.238 22.5769 196.407 22.2692 195.792 21.6539C195.177 21.0386 194.854 20.1772 194.854 19.0696V12.1319H201.684V7.6863H194.854V2.79456Z" fill="#D8002A"/>
<path d="M223.128 16.6853C223.128 14.947 222.744 13.3164 221.99 11.8551C221.236 10.3937 220.144 9.2092 218.729 8.33238C217.329 7.45556 215.591 7.00946 213.56 7.00946C211.622 7.00946 209.884 7.47094 208.392 8.37853C206.915 9.28612 205.73 10.5168 204.9 12.0397C204.069 13.5626 203.654 15.2547 203.654 17.0698C203.654 19.1004 204.1 20.9002 205.007 22.4077C205.9 23.9306 207.161 25.1304 208.73 25.9919C210.299 26.8533 212.099 27.2841 214.083 27.2841C216.114 27.2841 217.898 26.8072 219.421 25.8842C220.913 24.9766 222.082 23.6691 222.898 21.9923L218.852 19.9464C218.406 20.7925 217.76 21.4693 216.929 21.9616C216.068 22.4692 215.099 22.7153 214.037 22.7153C212.93 22.7153 211.96 22.4692 211.145 21.977C210.345 21.4847 209.699 20.7925 209.268 19.9157C209.022 19.4234 208.853 18.9004 208.761 18.3159L208.745 18.1928H223.128V16.6853ZM208.976 15.3623L209.007 15.2239C209.161 14.5624 209.438 13.9471 209.822 13.4087C210.207 12.8703 210.714 12.4242 211.345 12.1012C211.976 11.7781 212.699 11.6243 213.514 11.6243C214.314 11.6243 215.022 11.7781 215.637 12.0858C216.252 12.3935 216.76 12.8242 217.144 13.3626C217.529 13.9164 217.76 14.5317 217.852 15.2239L217.867 15.347H208.976V15.3623Z" fill="#D8002A"/>
<path d="M149.106 0.764038H143.799V26.7764H149.106V0.764038Z" fill="#D8002A"/>
<path d="M159.796 0.764038H154.489V26.7764H159.796V0.764038Z" fill="#D8002A"/>
<path d="M66.6206 20.931L57.5447 17.7467C57.6524 22.6846 61.6673 26.6841 66.6206 26.761V20.931Z" fill="#FA5200"/>
<path d="M48.1625 8.30164C48.2394 13.2549 52.2389 17.2698 57.1768 17.3775L53.9926 8.30164H48.1625Z" fill="#FA5200"/>
<path d="M57.2073 17.7466L48.1315 20.9309V26.761C53.0847 26.6841 57.0997 22.6845 57.2073 17.7466Z" fill="#D8002A"/>
<path d="M66.6215 8.30157H60.7914L57.6072 17.3774C62.5451 17.2698 66.5446 13.2549 66.6215 8.30157Z" fill="#D8002A"/>
<path d="M135.784 0.764099L132.892 4.59443H127.677L130.508 0.764099H135.784Z" fill="#D8002A"/>
</svg>
