<svg width="271" height="157" viewBox="0 0 271 157" fill="none" xmlns="http://www.w3.org/2000/svg">
<path d="M57.8239 31.1472C57.3897 71.3867 57.1463 93.9474 56.7122 134.187L56.9877 137.891H202.457L202.467 34.0282L57.8239 31.1472Z" fill="#FCFCFC"/>
<path d="M71.5966 24.7483C70.6067 24.7483 69.9074 24.7157 68.4809 24.7157C67.0545 24.7157 65.93 24.7157 64.9857 24.7483H56.5057V30.5103C57.5003 31.7899 56.1516 32.9551 56.1516 34.5182L202.959 34.5182V24.7483H71.5966Z" fill="#DEDEDE"/>
<path d="M202.457 137.891H56.9877L56.9877 34.4561C56.8303 34.5345 56.6631 34.3679 56.4958 34.4169C56.3286 34.5051 56.181 34.2503 56.004 34.3091L56.004 138.851H203.431V97.3219C203.096 97.2337 202.772 97.0965 202.457 96.9299V137.871V137.891Z" fill="#202020"/>
<path d="M56.1516 34.0326C56.1516 34.4605 56.1516 34.0326 56.1516 34.9984H202.457V93.6332C202.752 93.349 203.087 93.104 203.431 92.8982V34.0184H58.5323L56.1516 34.0326Z" fill="#202020"/>
<path d="M72.2262 24.2583C72.2262 24.2583 72.177 24.3269 72.1475 24.3661C71.7736 24.7581 71.3506 25.0422 70.8686 25.2382H202.477V34.0282H58.7388C58.8667 34.3516 58.9847 34.6652 59.1028 34.9689C59.1028 34.9689 59.1028 34.9983 59.1126 35.0081H203.441V24.2681H72.2262V24.2583Z" fill="#202020"/>
<path d="M73.9159 24.2583H56.004L56.0138 35.1918C56.3483 35.476 56.3209 35.5516 56.5865 35.924C56.6062 35.924 56.9779 36.5735 56.9877 36.5833L56.9779 25.2284H75.2833C74.7619 25.003 74.3094 24.6601 73.9061 24.2583H73.9159Z" fill="#202020"/>
<path d="M171.497 93.3218H133.18V96.0558H171.497V93.3218Z" fill="#DEDEDE"/>
<path d="M171.497 99.8285H133.18V102.562H171.497V99.8285Z" fill="#DEDEDE"/>
<path d="M171.497 106.335H133.18V109.069H171.497V106.335Z" fill="#DEDEDE"/>
<path d="M171.497 113.65H133.18V116.384H171.497V113.65Z" fill="#DEDEDE"/>
<path d="M44.2951 34.8418C42.0311 34.7536 40.3305 34.3301 38.2941 34.0872L35.6478 33.7443L31.1422 68.7964L78.6875 74.8719L83.1833 39.8198L44.2951 34.8418Z" fill="#DEDEDE"/>
<path d="M44.8755 34.4203C44.4525 34.773 43.9901 35.0376 43.4687 35.2238L82.6422 40.2312L78.2645 74.3132L31.693 68.365L36.0708 34.2831L46.7623 35.6619C46.5262 35.5051 46.3098 35.3287 46.1131 35.1131C45.9163 34.9368 45.7687 34.731 45.6212 34.5252L35.2346 33.1855L30.6109 69.198L79.1203 75.4009L83.744 39.3885L44.8755 34.4301H44.8656L44.8755 34.4203Z" fill="#202020"/>
<path d="M34.2901 68.2573L53.2177 47.9531L65.259 72.2064L34.2901 68.2475V68.2573Z" fill="#FCFCFC"/>
<path d="M50.5715 70.3347L65.4165 54.4207L74.8508 73.4411L50.5715 70.3347Z" fill="#FCFCFC"/>
<path d="M69.8237 49.8443C72.047 49.8443 73.8375 48.051 73.8375 45.8364C73.8375 43.6218 72.0372 41.8285 69.8237 41.8285C67.6102 41.8285 65.8099 43.6218 65.8099 45.8364C65.8099 48.051 67.6102 49.8443 69.8237 49.8443Z" fill="#FCFCFC"/>
<path d="M123.805 93.3218H85.487V96.0558H123.805V93.3218Z" fill="#DEDEDE"/>
<path d="M123.805 99.8285H85.487V102.562H123.805V99.8285Z" fill="#DEDEDE"/>
<path d="M123.805 106.335H85.487V109.069H123.805V106.335Z" fill="#DEDEDE"/>
<path d="M123.805 113.65H85.487V116.384H123.805V113.65Z" fill="#DEDEDE"/>
<path d="M62.9493 31.1472C63.7855 31.1472 64.4643 30.4711 64.4643 29.6381C64.4643 28.8052 63.7855 28.129 62.9493 28.129C62.1131 28.129 61.4343 28.8052 61.4343 29.6381C61.4343 30.4711 62.1131 31.1472 62.9493 31.1472Z" fill="#202020"/>
<path d="M77.0172 31.1472C77.8534 31.1472 78.5322 30.4711 78.5322 29.6381C78.5322 28.8052 77.8534 28.129 77.0172 28.129C76.181 28.129 75.5022 28.8052 75.5022 29.6381C75.5022 30.4711 76.181 31.1472 77.0172 31.1472Z" fill="#202020"/>
<path d="M70.121 31.1472C70.9572 31.1472 71.636 30.4711 71.636 29.6381C71.636 28.8052 70.9572 28.129 70.121 28.129C69.2848 28.129 68.606 28.8052 68.606 29.6381C68.606 30.4711 69.2848 31.1472 70.121 31.1472Z" fill="#202020"/>
<path d="M63.988 139.049H11.668C11.4781 139.049 11.2881 139 11.1313 138.901L1.34602 133.201C0.412912 132.65 0.79276 131.218 1.88276 131.218H54.2028C54.3927 131.218 54.5826 131.268 54.7395 131.366L64.5248 137.067C65.4579 137.618 65.078 139.049 63.988 139.049Z" fill="#FCFCFC"/>
<path d="M63.9881 139.452H11.668C11.4038 139.452 11.1478 139.386 10.9249 139.246L1.13963 133.546C0.553337 133.201 0.289093 132.543 0.462502 131.893C0.644169 131.243 1.20569 130.807 1.89106 130.807H54.2111C54.4753 130.807 54.7313 130.873 54.9543 131.013L64.7395 136.713C65.3258 137.058 65.59 137.716 65.4249 138.366C65.2515 139.016 64.6817 139.452 63.9963 139.452H63.9881ZM1.88281 131.63C1.51122 131.63 1.31303 131.876 1.25523 132.115C1.18917 132.354 1.23871 132.666 1.56076 132.855L11.346 138.555C11.4451 138.613 11.5607 138.646 11.6763 138.646H63.9963C64.3679 138.646 64.5661 138.399 64.6239 138.161C64.69 137.922 64.6404 137.61 64.3184 137.42L54.5331 131.72C54.434 131.663 54.3184 131.63 54.2028 131.63H1.88281Z" fill="#202020"/>
<path d="M12.9314 133.283L30.4787 85.2549H36.4407L52.9393 133.283C52.9393 133.283 37.1508 141.492 12.9231 133.283H12.9314Z" fill="#FCFCFC"/>
<path d="M33.98 137.313C28.0097 137.313 20.8587 136.409 12.791 133.67L12.3947 133.538L30.1897 84.8518H36.738L36.8371 85.1315L53.4513 133.489L53.1376 133.653C53.0302 133.711 45.8791 137.322 33.9882 137.322H33.98V137.313ZM13.4599 133.028C35.1443 140.242 50.0988 134.13 52.4274 133.069L36.1435 85.6579H30.7513L13.4434 133.02H13.4516L13.4599 133.028Z" fill="#202020"/>
<path d="M33.0221 127.78C22.9809 127.78 16.061 124.984 15.9619 124.934L16.2757 124.177C16.4243 124.243 31.7174 130.412 49.818 124.177L50.0905 124.959C43.9303 127.089 38.0922 127.788 33.0386 127.788H33.0303L33.0221 127.78Z" fill="#202020"/>
<path d="M32.989 120.764C26.2261 120.764 20.933 119.497 18.2823 118.699L18.5218 117.91C22.8405 119.201 34.3185 121.784 47.6545 117.827L47.894 118.617C42.5183 120.213 37.4316 120.764 32.989 120.764Z" fill="#202020"/>
<path d="M64.3183 141.549H10.8917L0 135.092L0.421137 134.385L11.1147 140.727H64.3266V141.541L64.3183 141.549Z" fill="#202020"/>
<path d="M126.058 56.2702L113.525 75.6165C112.481 77.2058 113.641 79.3152 115.542 79.3152H141.041C142.956 79.3152 144.116 77.1769 143.043 75.5731L130.075 56.2269C129.118 54.782 127 54.7965 126.058 56.2558V56.2702Z" fill="#DEDEDE"/>
<path d="M141.041 80.0521H115.542C114.381 80.0521 113.351 79.4453 112.786 78.4339C112.22 77.4225 112.278 76.2233 112.902 75.2553L125.434 55.909C126.014 55.0132 126.971 54.4786 128.03 54.4786H128.059C129.118 54.4786 130.075 54.9988 130.656 55.8657L143.623 75.2119C144.276 76.1944 144.334 77.3792 143.782 78.4194C143.231 79.4597 142.201 80.0665 141.027 80.0665L141.041 80.0521ZM126.652 56.6748L114.12 76.021C113.772 76.5556 113.757 77.1913 114.062 77.7259C114.367 78.2749 114.918 78.6073 115.542 78.6073H141.041C141.679 78.6073 142.216 78.2749 142.521 77.7115C142.825 77.148 142.782 76.4978 142.433 75.9921L129.466 56.6459C129.147 56.1691 128.639 55.8946 128.074 55.8946C127.508 55.8946 126.986 56.1835 126.681 56.6748H126.652Z" fill="#202020"/>
<path d="M128.262 77.2058C127.856 77.2058 127.494 77.0469 127.203 76.729C126.913 76.4111 126.754 76.021 126.754 75.5587C126.754 75.0963 126.899 74.6918 127.203 74.3739C127.494 74.0416 127.856 73.8827 128.262 73.8827C128.668 73.8827 129.046 74.0416 129.321 74.3739C129.611 74.7062 129.771 75.0963 129.771 75.5587C129.771 76.021 129.626 76.4111 129.321 76.729C129.017 77.0469 128.668 77.2058 128.262 77.2058ZM127.74 71.8455L126.942 61.4283V61.0526H129.539V61.4283L128.741 71.8455H127.711H127.726H127.74Z" fill="#202020"/>
<path d="M259.651 108.3L266.638 130.626C266.638 130.626 267.439 137.169 264.555 136.444C261.672 135.719 259.925 131.949 259.925 131.949L250.199 135.415L242.996 138.067L239.439 140.064C239.439 140.064 230.072 140.743 228.019 139.859L215.848 141.246L203.151 139.751C203.151 139.751 197.676 138.022 200.37 133.894C203.064 129.765 218.005 129.512 218.005 129.512L225.794 129.152C225.794 129.152 225.205 120.678 221.709 117.106C221.709 117.106 216.249 116.179 215.806 116.65L215.355 117.111L212.655 103.805L188.82 109.45C188.82 109.45 188.488 100.583 191.015 99.8057C193.542 99.0284 197.416 96.4532 197.416 96.4532L202.972 92.4592L221.964 97.2397C221.964 97.2397 227.196 96.9003 230.445 98.7434C233.693 100.586 259.653 108.282 259.653 108.282L259.651 108.3Z" fill="#FCFCFC"/>
<path d="M204.255 131.457C204.605 131.232 204.986 131.047 205.454 130.919C205.927 130.579 206.448 130.31 207.063 130.18C210.851 129.34 214.736 128.934 218.618 128.858L212.654 103.814L169.242 114.108L176.852 146.116L201.816 140.2C201.696 140.122 201.587 140.035 201.469 139.939C197.816 137.929 199.222 131.131 204.246 131.456L204.255 131.457Z" fill="#DEDEDE"/>
<path d="M201.331 139.858L177.192 145.577L169.791 114.457L212.32 104.372L218.154 128.878C218.469 128.869 218.784 128.86 219.079 128.858L213.002 103.285L168.699 113.787L176.518 146.674L202.451 140.523C202.081 140.378 201.764 140.175 201.461 139.929C201.418 139.905 201.376 139.873 201.332 139.849L201.331 139.858Z" fill="#202020"/>
<path d="M201.489 132.151L189.232 120.741L179.426 144.628L200.909 139.533C198.7 137.711 199.077 133.75 201.491 132.142L201.489 132.151Z" fill="#FCFCFC"/>
<path d="M204.255 131.457C204.605 131.232 204.986 131.047 205.454 130.919C205.927 130.579 206.448 130.31 207.063 130.18C207.963 129.974 208.878 129.806 209.791 129.647L201.967 122.379L194.276 141.103L200.89 139.531C198.001 137.151 199.526 131.13 204.247 131.447L204.255 131.457Z" fill="#FCFCFC"/>
<path d="M202.549 117.156C204.605 117.398 206.457 115.935 206.7 113.888C206.943 111.84 205.475 109.986 203.429 109.746C201.382 109.505 199.521 110.967 199.278 113.014C199.035 115.061 200.503 116.915 202.549 117.156Z" fill="#FCFCFC"/>
<path d="M202.093 140.122L202.023 140.086C201.928 140.038 199.745 139.001 199.186 137.033C198.887 135.978 199.12 134.867 199.87 133.752C202.302 130.125 209.889 129.521 210.791 129.462C212.154 128.933 216.767 128.833 218.492 128.908C220.025 128.969 224.093 128.566 225.13 128.458C225.278 128.063 225.556 126.809 224.668 124.032C223.461 120.298 221.409 117.144 220.006 116.85C218.521 116.538 216.158 117.491 216.139 117.498L215.797 116.649C215.903 116.606 218.432 115.581 220.195 115.954C222.283 116.384 224.438 120.303 225.541 123.749C226.822 127.721 225.892 129.026 225.784 129.16L225.666 129.302L225.479 129.326C225.264 129.347 220.285 129.881 218.468 129.805C216.514 129.722 212.078 129.88 211.095 130.315L210.934 130.351C210.85 130.36 202.908 130.839 200.633 134.237C200.04 135.122 199.845 135.981 200.065 136.769C200.462 138.166 202.019 139.039 202.348 139.215L210.806 140.138C210.806 140.138 214.53 140.383 215.789 140.338C216.122 140.332 217.046 140.238 218.23 140.13C222.772 139.7 227.31 139.306 228.672 139.641C230.473 140.083 237.055 140.022 239.702 139.011C240.379 138.751 241.172 138.44 241.975 138.121C244.586 137.097 247.286 136.027 248.281 135.878C248.385 135.863 259.226 133.713 264.842 126.878L265.539 127.456C260.408 133.705 250.737 136.397 248.433 136.778C247.549 136.922 244.647 138.059 242.317 138.97C241.503 139.296 240.71 139.607 240.035 139.858C237.089 140.981 230.383 141 228.457 140.516C227.141 140.187 221.396 140.732 218.317 141.031C217.076 141.151 216.18 141.239 215.819 141.251C214.523 141.292 210.89 141.057 210.735 141.048L202.104 140.105L202.066 140.119L202.093 140.122Z" fill="#202020"/>
<path d="M209.407 139.881L202.07 138.843L202.07 138.448C202.072 137.814 202.142 134.653 203.146 133.733C204.143 132.794 208.129 133.089 208.932 133.156L209.205 133.188L209.315 133.431C211.57 138.593 209.758 139.72 209.543 139.824L209.415 139.891L209.407 139.881ZM203.003 138.052L209.188 138.928C209.435 138.635 210.043 137.476 208.58 134.024C206.559 133.878 204.215 133.97 203.762 134.375C203.284 134.824 203.028 136.668 202.985 138.041L203.003 138.052Z" fill="#202020"/>
<path d="M194.108 108.171L193.213 108.019C193.377 107.028 193.769 104.264 193.587 103.232C193.337 101.843 193.49 100.556 193.496 100.502L193.553 100.334C193.682 100.101 194.84 98.0331 195.696 97.5091C195.874 97.4015 196.343 96.9515 196.831 96.4945C198.326 95.0814 200.838 92.7224 202.797 92.1447C205.377 91.3829 219.649 95.7638 221.57 96.3574C222.25 96.3823 227.519 96.5893 230.787 97.9569C234.329 99.4303 260.036 107.693 260.207 107.731L260.001 108.607C259.202 108.43 233.595 100.097 230.439 98.7887C227.17 97.4301 221.546 97.264 221.491 97.2575L221.364 97.2426C214.978 95.2598 204.83 92.4943 203.063 93.0119C201.313 93.5316 198.906 95.7926 197.463 97.1477C196.788 97.7847 196.435 98.1197 196.196 98.2661C195.718 98.5681 194.87 99.8829 194.414 100.693C194.379 100.992 194.313 102.013 194.5 103.082C194.749 104.48 194.152 108.029 194.125 108.182L194.108 108.171Z" fill="#202020"/>
<path d="M197.688 107.536L196.787 107.43L197.585 100.708C197.682 99.7362 198.127 98.9343 198.908 98.3373C201.055 96.7162 204.782 97.3295 205.18 97.3947C207.293 97.7721 214.346 97.9411 218.087 97.8946C221.864 97.8434 225.745 98.7136 225.907 98.751L225.7 99.6361C225.7 99.6361 221.757 98.7493 218.098 98.8054C214.33 98.8578 207.186 98.6781 205.027 98.2953C203.663 98.0521 200.947 97.9435 199.458 99.0635C198.881 99.5007 198.573 100.071 198.495 100.806L197.697 107.537L197.688 107.536Z" fill="#202020"/>
<path d="M187.871 109.825L188.21 104.169C188.226 104.033 188.547 101.49 189.544 100.395C190.487 99.3576 196.269 96.7222 196.931 96.4236L197.312 97.2583C194.808 98.3873 190.843 100.327 190.227 101.008C189.567 101.748 189.208 103.607 189.131 104.259L188.795 109.888L187.888 109.836L187.871 109.825Z" fill="#202020"/>
<path d="M214.349 107.789L213.829 107.039C217.187 104.697 223.145 103.221 225.388 102.658C225.834 102.545 226.137 102.48 226.217 102.434L226.371 102.838C226.371 102.838 226.766 103.243 225.598 103.528C223.403 104.078 217.559 105.53 214.342 107.77L214.349 107.789Z" fill="#202020"/>
<path d="M264.555 136.444C261.781 136.117 260.012 132.143 259.925 131.949L260.752 131.578C260.752 131.578 262.879 136.348 265.654 135.425C265.731 135.397 265.787 135.312 265.824 135.234C267.225 132.441 261.844 114.841 259.652 108.291L260.507 107.996C261.323 110.444 268.459 131.989 266.625 135.631C266.457 135.96 266.219 136.18 265.922 136.274C265.432 136.437 264.976 136.475 264.53 136.423L264.548 136.425L264.555 136.444Z" fill="#202020"/>
<path d="M177.28 123.937C177.177 123.87 177.083 123.803 176.981 123.736C176.363 123.342 175.931 122.786 175.55 122.19C175.062 121.407 174.711 120.557 174.331 119.722C173.008 116.802 171.684 113.89 170.369 110.989C170.09 110.386 169.839 109.778 169.724 109.121C169.496 107.928 169.624 106.776 170.327 105.748C170.797 105.05 171.444 104.566 172.23 104.245C173.045 103.9 173.886 103.806 174.745 104.027L174.809 104.034C175.021 104.114 175.224 104.193 175.435 104.273C175.46 104.295 175.485 104.325 175.52 104.338C176.43 104.831 177.107 105.572 177.581 106.473C177.973 107.208 178.308 107.964 178.652 108.721C179.215 109.954 179.777 111.205 180.34 112.447C180.938 113.776 181.554 115.116 182.151 116.454C182.34 116.881 182.048 117.324 181.602 117.272C181.366 117.244 181.207 117.106 181.113 116.892C180.537 115.603 179.943 114.311 179.368 113.022C178.719 111.577 178.059 110.14 177.401 108.693C177.101 108.033 176.84 107.36 176.432 106.751C176.103 106.262 175.731 105.824 175.235 105.499C174.5 105.008 173.698 104.923 172.87 105.22C171.926 105.559 171.22 106.147 170.909 107.139C170.727 107.733 170.731 108.321 170.843 108.932C170.96 109.579 171.231 110.172 171.493 110.763C171.91 111.675 172.318 112.596 172.744 113.51C173.25 114.607 173.746 115.713 174.251 116.819C174.718 117.857 175.186 118.886 175.654 119.915C176.02 120.72 176.367 121.524 176.942 122.198C177.161 122.453 177.428 122.687 177.691 122.883C178.116 123.181 178.592 123.21 179.085 123.102C179.492 123.012 179.871 122.846 180.205 122.6C180.749 122.214 180.895 121.68 180.811 121.064C180.71 120.363 180.444 119.726 180.178 119.097C179.558 117.711 178.939 116.324 178.319 114.947C177.61 113.384 176.892 111.812 176.184 110.24C176.016 109.871 175.857 109.504 175.676 109.161C175.502 108.837 175.266 108.58 174.935 108.412C174.196 108.031 173.216 108.596 173.174 109.417C173.154 109.819 173.258 110.19 173.419 110.539C174.64 113.228 175.861 115.916 177.073 118.603C177.169 118.807 177.201 119.004 177.066 119.209C176.943 119.387 176.776 119.477 176.557 119.461C176.329 119.434 176.167 119.323 176.081 119.12C175.781 118.46 175.488 117.819 175.188 117.159C174.502 115.636 173.798 114.111 173.122 112.58C172.814 111.91 172.514 111.25 172.236 110.565C172.002 109.968 171.964 109.358 172.184 108.75C172.448 108 172.981 107.548 173.72 107.305C174.777 106.942 175.784 107.401 176.404 108.236C176.787 108.74 176.985 109.324 177.241 109.887C178.485 112.615 179.721 115.332 180.955 118.068C181.291 118.806 181.619 119.542 181.821 120.329C181.933 120.783 181.997 121.25 181.952 121.713C181.871 122.392 181.592 122.956 181.052 123.389C180.33 123.956 179.508 124.273 178.576 124.282C178.363 124.285 178.147 124.241 177.928 124.224L177.337 123.999L177.299 123.93L177.28 123.937Z" fill="#202020"/>
<path d="M182.609 30.717L182.642 30.8061L182.736 30.7935L199.868 28.5038L199.895 28.5002L199.917 28.4856L214.892 18.7875L214.973 18.7352L214.939 18.6452L210.875 7.81882L210.833 7.7071L210.721 7.74884L178.614 19.7366L178.502 19.7785L178.544 19.8907L182.609 30.717Z" fill="#DEDEDE" stroke="black" stroke-width="0.239102"/>
<path d="M178.562 19.5832L178.561 19.5834C178.416 19.639 178.331 19.7987 178.39 19.9517C178.39 19.9518 178.39 19.9519 178.39 19.952L182.453 30.7754C182.491 30.8967 182.61 30.9621 182.72 30.9621H182.745V30.9628L182.756 30.9614L199.896 28.6717L199.904 28.6707L199.911 28.6683C199.926 28.6632 199.949 28.6538 199.967 28.6467L199.99 28.637L199.997 28.634L199.999 28.6331L200 28.6329L200 28.6328L200 28.6328L200.001 28.6339L200.012 28.6264L214.987 18.9283L214.987 18.9284L214.989 18.9268C215.1 18.8494 215.148 18.7125 215.102 18.5852L215.101 18.5845L211.038 7.76089C211.038 7.76039 211.038 7.7599 211.038 7.75941C211.012 7.68573 210.953 7.6304 210.89 7.5987L210.89 7.59798L210.879 7.5944C210.813 7.57239 210.737 7.57239 210.671 7.5944L210.671 7.59435L210.668 7.59537L178.562 19.5832ZM179.023 20.0061L210.591 8.22053L214.472 18.5722L199.749 28.1096L182.906 30.3636L179.023 20.0061Z" fill="#202020" stroke="black" stroke-width="0.159401"/>
<path d="M211.157 21.0038L211.168 21.0068H211.179H211.179H211.179H211.179H211.18H211.18H211.18H211.18H211.18H211.18H211.181H211.181H211.181H211.181H211.181H211.181H211.181H211.182H211.182H211.182H211.182H211.182H211.182H211.183H211.183H211.183H211.183H211.183H211.183H211.183H211.184H211.184H211.184H211.184H211.184H211.184H211.185H211.185H211.185H211.185H211.185H211.185H211.185H211.186H211.186H211.186H211.186H211.186H211.186H211.187H211.187H211.187H211.187H211.187H211.187H211.188H211.188H211.188H211.188H211.188H211.188H211.189H211.189H211.189H211.189H211.189H211.189H211.19H211.19H211.19H211.19H211.19H211.19H211.191H211.191H211.191H211.191H211.191H211.191H211.192H211.192H211.192H211.192H211.192H211.192H211.193H211.193H211.193H211.193H211.193H211.193H211.194H211.194H211.194H211.194H211.194H211.194H211.195H211.195H211.195H211.195H211.195H211.195H211.196H211.196H211.196H211.196H211.196H211.197H211.197H211.197H211.197H211.197H211.197H211.198H211.198H211.198H211.198H211.198H211.198H211.199H211.199H211.199H211.199H211.199H211.199H211.2H211.2H211.2H211.2H211.2H211.201H211.201H211.201H211.201H211.201H211.201H211.202H211.202H211.202H211.202H211.202H211.202H211.203H211.203H211.203H211.203H211.203H211.203H211.204H211.204H211.204H211.204H211.204H211.205H211.205H211.205H211.205H211.205H211.205H211.206H211.206H211.206H211.206H211.206H211.206H211.207H211.207H211.207H211.207H211.207H211.207H211.208H211.208H211.208H211.208H211.208H211.209H211.209H211.209H211.209H211.209H211.209H211.21H211.21H211.21H211.21H211.21H211.21H211.211H211.211H211.211H211.211H211.211H211.211H211.212H211.212H211.212H211.212H211.212H211.212H211.213H211.213L211.221 21.0151H211.254C211.291 21.0151 211.33 21.0019 211.352 20.9933C211.365 20.9885 211.376 20.9837 211.384 20.9801L211.394 20.9756L211.396 20.9742L211.397 20.9738L211.398 20.9737L211.398 20.9736L211.398 20.9736L211.398 20.9736L211.362 20.9022L211.398 20.9739L211.404 20.9702L214.699 18.9485C214.78 18.9956 214.881 19.0057 214.971 18.9577C215.075 18.9098 215.131 18.8057 215.131 18.7038C215.131 18.6548 215.118 18.6178 215.099 18.5796C215.058 18.4803 214.965 18.4354 214.884 18.4216L210.963 7.95851C210.937 7.88482 210.878 7.82949 210.815 7.79779L210.815 7.79707L210.804 7.79349C210.738 7.77149 210.662 7.77149 210.596 7.79349L210.596 7.79345L210.593 7.79443L206.912 9.16328L206.912 9.16327L206.911 9.16356C206.766 9.21916 206.682 9.37885 206.74 9.53178C206.74 9.53191 206.74 9.53204 206.741 9.53216L210.978 20.828C211.004 20.9112 211.074 20.98 211.157 21.0038ZM211.395 20.2943L207.374 9.58713L210.524 8.41131L214.313 18.5043L211.395 20.2943Z" fill="#202020" stroke="black" stroke-width="0.159401"/>
<path d="M182.72 30.675L186.968 29.9698L182.612 18.3636L178.656 19.8403L182.72 30.6667V30.675Z" fill="#DEDEDE"/>
<path d="M178.562 19.5832L178.562 19.5832L178.561 19.5834C178.416 19.6391 178.331 19.7987 178.39 19.9517C178.39 19.9518 178.39 19.9519 178.39 19.9521L182.453 30.7754C182.482 30.8676 182.558 30.9275 182.641 30.951V30.9704H182.72H182.754V30.9715L182.767 30.9694L187.013 30.2644C187.108 30.2519 187.176 30.1925 187.217 30.1303C187.265 30.0598 187.277 29.9659 187.242 29.8822L182.887 18.2776L182.886 18.2769C182.83 18.1319 182.67 18.0483 182.517 18.1066C182.517 18.1067 182.517 18.1067 182.517 18.1068L178.562 19.5832ZM186.568 29.7496L182.905 30.3616L179.024 20.0089L182.432 18.7399L186.568 29.7496Z" fill="#202020" stroke="black" stroke-width="0.159401"/>
<path d="M212.637 7.31341L176.899 20.6535C176.824 20.6784 176.741 20.6535 176.708 20.5705L174.525 14.7467C174.5 14.672 174.534 14.5891 174.609 14.5559L210.346 1.21581C210.421 1.19092 210.505 1.22411 210.538 1.29877L212.72 7.1226C212.745 7.19727 212.712 7.28023 212.637 7.31341Z" fill="#DEDEDE"/>
<path d="M176.849 20.9571H176.882L176.893 20.946C176.915 20.943 176.937 20.9381 176.954 20.9341C176.968 20.9307 176.981 20.9274 176.99 20.9249L177.001 20.9218L177.004 20.9209L177.005 20.9207L177.005 20.9206L177.005 20.9205L177.005 20.9205L177.005 20.9207L177.01 20.9188L212.747 7.57904C212.747 7.579 212.747 7.57895 212.747 7.57891C212.86 7.5378 212.941 7.45582 212.991 7.35735L212.991 7.35759L212.995 7.34893C213.034 7.24002 213.034 7.1294 212.995 7.02049L212.994 7.01986L210.812 1.19666C210.812 1.1965 210.812 1.19634 210.812 1.19617C210.771 1.08333 210.689 1.0027 210.59 0.953547L210.59 0.953076L210.582 0.949952C210.472 0.910415 210.362 0.910415 210.252 0.949952L210.252 0.949948L210.252 0.95022L174.515 14.29C174.515 14.2901 174.514 14.2901 174.514 14.2901C174.288 14.3723 174.178 14.6265 174.259 14.8486L174.259 14.8492L176.441 20.6724C176.441 20.6725 176.441 20.6726 176.441 20.6727C176.482 20.784 176.562 20.864 176.659 20.9134C176.728 20.9572 176.797 20.9571 176.844 20.9571L176.849 20.9571ZM176.921 20.3517L174.836 14.7767L210.308 1.53392L212.392 7.1089L176.921 20.3517Z" fill="#202020" stroke="black" stroke-width="0.159401"/>
<path d="M207.34 60.7151C217.875 60.7151 226.42 52.1951 226.42 41.684C226.42 31.1729 217.875 22.6528 207.34 22.6528C196.804 22.6528 188.259 31.1729 188.259 41.684C188.259 52.1951 196.804 60.7151 207.34 60.7151Z" fill="#DEDEDE"/>
<path d="M189.267 48.4317C192.997 58.3785 204.145 63.4432 214.114 59.7195C224.082 55.9958 229.159 44.8747 225.429 34.9278C221.699 24.981 210.551 19.9163 200.582 23.64C190.613 27.3637 185.537 38.4848 189.267 48.4317ZM189.699 48.2762C186.059 38.5613 191.01 27.7062 200.746 24.0714C210.483 20.4364 221.364 25.3768 225.005 35.0916C228.645 44.8064 223.694 55.6615 213.958 59.2964C204.221 62.9314 193.34 57.991 189.699 48.2762Z" fill="#202020" stroke="black" stroke-width="0.159401"/>
<path d="M201.976 27.3525L201.976 27.3524C209.893 24.3889 218.744 28.4144 221.711 36.3168C224.669 44.2107 220.645 53.0518 212.72 56.007L212.719 56.007C204.803 58.9705 195.952 54.945 192.985 47.0426C190.026 39.1487 194.051 30.3077 201.976 27.3525ZM192.478 47.2345C195.549 55.4099 204.713 59.5724 212.903 56.5131C221.102 53.4537 225.281 44.309 222.21 36.1332C219.138 27.9579 209.975 23.7953 201.784 26.8547C193.586 29.9141 189.406 39.0588 192.478 47.2345Z" fill="#202020" stroke="black" stroke-width="0.239102"/>
<path d="M204.083 31.9526C206.199 37.2372 212.153 39.9168 217.525 38.0088L215.168 31.7286L204.075 31.9526H204.083Z" fill="#FCFCFC"/>
<path d="M197.562 45.4669C202.875 43.3846 205.591 37.4612 203.725 32.0936L195.213 39.195L197.57 45.4752L197.562 45.4669Z" fill="#FCFCFC"/>
<path d="M197.737 45.8568C199.819 51.158 205.765 53.8708 211.137 52.0042L204.025 43.509L197.728 45.8651L197.737 45.8568Z" fill="#FCFCFC"/>
<path d="M211.604 51.8216C216.892 49.7061 219.591 43.7661 217.667 38.3986L211.371 40.7546L211.595 51.8216H211.604Z" fill="#FCFCFC"/>
</svg>
